<mxfile host="app.diagrams.net" modified="2024-04-30T11:21:45.235Z" agent="Mozilla/5.0 (Windows NT 10.0; Win64; x64) AppleWebKit/537.36 (KHTML, like Gecko) Chrome/124.0.0.0 Safari/537.36" version="24.3.1" etag="NqWS4m7Ugv6IzhPBADXe" type="github">
  <diagram name="Page-1" id="9hGMUIrUqX4A8SV-FC0S">
    <mxGraphModel>
      <root>
        <mxCell id="0" />
        <mxCell id="1" parent="0" />
      </root>
    </mxGraphModel>
  </diagram>
</mxfile>
